<svg xmlns="http://www.w3.org/2000/svg" width="480" height="345" fill="none" viewBox="0 0 480 345"><mask id="mask0_25567_55585" style="mask-type:alpha" width="480" height="345" x="0" y="0" maskUnits="userSpaceOnUse"><rect width="480" height="344.571" y=".428" fill="url(#paint0_radial_25567_55585)"/></mask><g mask="url(#mask0_25567_55585)"><line x1="11.146" x2="11.146" y1="2.143" y2="345" stroke="#E4EAF1" stroke-width="1.714"/><line x1="28.287" x2="28.287" y1="2.143" y2="345" stroke="#E4EAF1" stroke-width="1.714"/><line x1="45.428" x2="45.427" y1="2.143" y2="345" stroke="#E4EAF1" stroke-width="1.714"/><line x1="62.576" x2="62.576" y1="2.143" y2="345" stroke="#E4EAF1" stroke-width="1.714"/><line x1="79.716" x2="79.716" y1="2.143" y2="345" stroke="#E4EAF1" stroke-width="1.714"/><line x1="96.857" x2="96.857" y1="2.143" y2="345" stroke="#E4EAF1" stroke-width="1.714"/><line x1="114.006" x2="114.006" y1="2.143" y2="345" stroke="#E4EAF1" stroke-width="1.714"/><line x1="131.146" x2="131.146" y1="2.143" y2="345" stroke="#E4EAF1" stroke-width="1.714"/><line x1="148.287" x2="148.287" y1="2.143" y2="345" stroke="#E4EAF1" stroke-width="1.714"/><line x1="165.427" x2="165.427" y1="2.143" y2="345" stroke="#E4EAF1" stroke-width="1.714"/><line x1="182.576" x2="182.576" y1="2.143" y2="345" stroke="#E4EAF1" stroke-width="1.714"/><line x1="199.717" x2="199.717" y1="2.143" y2="345" stroke="#E4EAF1" stroke-width="1.714"/><line x1="216.857" x2="216.857" y1="2.143" y2="345" stroke="#E4EAF1" stroke-width="1.714"/><line x1="234.006" x2="234.006" y1="2.143" y2="345" stroke="#E4EAF1" stroke-width="1.714"/><line x1="251.146" x2="251.146" y1="2.143" y2="345" stroke="#E4EAF1" stroke-width="1.714"/><line x1="268.287" x2="268.287" y1="2.143" y2="345" stroke="#E4EAF1" stroke-width="1.714"/><line x1="285.427" x2="285.427" y1="2.143" y2="345" stroke="#E4EAF1" stroke-width="1.714"/><line x1="302.576" x2="302.576" y1="2.143" y2="345" stroke="#E4EAF1" stroke-width="1.714"/><line x1="319.717" x2="319.716" y1="2.143" y2="345" stroke="#E4EAF1" stroke-width="1.714"/><line x1="336.857" x2="336.857" y1="2.143" y2="345" stroke="#E4EAF1" stroke-width="1.714"/><line x1="354.006" x2="354.006" y1="2.143" y2="345" stroke="#E4EAF1" stroke-width="1.714"/><line x1="371.146" x2="371.146" y1="2.143" y2="345" stroke="#E4EAF1" stroke-width="1.714"/><line x1="388.287" x2="388.287" y1="2.143" y2="345" stroke="#E4EAF1" stroke-width="1.714"/><line x1="405.427" x2="405.427" y1="2.143" y2="345" stroke="#E4EAF1" stroke-width="1.714"/><line x1="422.576" x2="422.576" y1="2.143" y2="345" stroke="#E4EAF1" stroke-width="1.714"/><line x1="439.717" x2="439.716" y1="2.143" y2="345" stroke="#E4EAF1" stroke-width="1.714"/><line x1="456.857" x2="456.857" y1="2.143" y2="345" stroke="#E4EAF1" stroke-width="1.714"/><line x1="474.006" x2="474.006" y1="2.143" y2="345" stroke="#E4EAF1" stroke-width="1.714"/><line x1="8.578" x2="476.578" y1="335.568" y2="335.568" stroke="#E4EAF1" stroke-width="1.714"/><line x1="8.578" x2="476.578" y1="318.425" y2="318.425" stroke="#E4EAF1" stroke-width="1.714"/><line x1="8.578" x2="476.578" y1="301.282" y2="301.282" stroke="#E4EAF1" stroke-width="1.714"/><line x1="8.578" x2="476.578" y1="284.139" y2="284.139" stroke="#E4EAF1" stroke-width="1.714"/><line x1="8.578" x2="476.578" y1="266.996" y2="266.996" stroke="#E4EAF1" stroke-width="1.714"/><line x1="8.578" x2="476.578" y1="249.853" y2="249.853" stroke="#E4EAF1" stroke-width="1.714"/><line x1="8.578" x2="476.578" y1="232.71" y2="232.71" stroke="#E4EAF1" stroke-width="1.714"/><line x1="8.578" x2="476.578" y1="215.568" y2="215.568" stroke="#E4EAF1" stroke-width="1.714"/><line x1="8.578" x2="476.578" y1="198.425" y2="198.425" stroke="#E4EAF1" stroke-width="1.714"/><line x1="8.578" x2="476.578" y1="181.282" y2="181.282" stroke="#E4EAF1" stroke-width="1.714"/><line x1="8.578" x2="476.578" y1="164.139" y2="164.139" stroke="#E4EAF1" stroke-width="1.714"/><line x1="8.578" x2="476.578" y1="146.996" y2="146.996" stroke="#E4EAF1" stroke-width="1.714"/><line x1="8.578" x2="476.578" y1="129.853" y2="129.853" stroke="#E4EAF1" stroke-width="1.714"/><line x1="8.578" x2="476.578" y1="112.71" y2="112.71" stroke="#E4EAF1" stroke-width="1.714"/><line x1="8.578" x2="476.578" y1="95.567" y2="95.567" stroke="#E4EAF1" stroke-width="1.714"/><line x1="8.578" x2="476.578" y1="78.425" y2="78.425" stroke="#E4EAF1" stroke-width="1.714"/><line x1="8.578" x2="476.578" y1="61.282" y2="61.282" stroke="#E4EAF1" stroke-width="1.714"/><line x1="8.578" x2="476.578" y1="44.139" y2="44.139" stroke="#E4EAF1" stroke-width="1.714"/><line x1="8.578" x2="476.578" y1="26.996" y2="26.996" stroke="#E4EAF1" stroke-width="1.714"/><line x1="8.578" x2="476.578" y1="9.853" y2="9.853" stroke="#E4EAF1" stroke-width="1.714"/></g><defs><radialGradient id="paint0_radial_25567_55585" cx="0" cy="0" r="1" gradientTransform="translate(240 172.713) rotate(90) scale(172.286 240)" gradientUnits="userSpaceOnUse"><stop offset=".912" stop-color="#D9D9D9"/><stop offset="1" stop-color="#D9D9D9" stop-opacity=".5"/></radialGradient></defs></svg>